<?xml version="1.0" encoding="UTF-8" standalone="no"?> <!-- Created with Vectornator for iOS (http://vectornator.io/) --><!DOCTYPE svg PUBLIC "-//W3C//DTD SVG 1.1//EN" "http://www.w3.org/Graphics/SVG/1.1/DTD/svg11.dtd">
<svg height="100%" style="fill-rule:nonzero;clip-rule:evenodd;stroke-linecap:round;stroke-linejoin:round;" xmlns:xlink="http://www.w3.org/1999/xlink" xmlns="http://www.w3.org/2000/svg" xml:space="preserve" width="100%" xmlns:vectornator="http://vectornator.io" version="1.1" viewBox="0 0 1024 768">
<metadata>
<vectornator:setting key="DimensionsVisible" value="1"/>
<vectornator:setting key="PencilOnly" value="0"/>
<vectornator:setting key="SnapToPoints" value="0"/>
<vectornator:setting key="GuidesVisible" value="1"/>
<vectornator:setting key="RulersVisible" value="1"/>
<vectornator:setting key="CMYKEnabledKey" value="0"/>
<vectornator:setting key="SnapToEdges" value="0"/>
<vectornator:setting key="OutlineMode" value="0"/>
<vectornator:setting key="DisplayWhiteBackground" value="0"/>
<vectornator:setting key="doHistoryDisabled" value="0"/>
<vectornator:setting key="SnapToGuides" value="1"/>
<vectornator:setting key="TimeLapseWatermarkDisabled" value="0"/>
<vectornator:setting key="DynamicGuides" value="0"/>
<vectornator:setting key="Units" value="Pixels"/>
<vectornator:setting key="IsolateActiveLayer" value="0"/>
<vectornator:setting key="SnapToGrid" value="0"/>
</metadata>
<defs/>
<g id="Layer 1" vectornator:layerName="Layer 1">
<path d="M668.876+726.01C665.687+726.008+662.514+725.569+659.444+724.707L531.994+690.593L532.368+689.252L659.819+723.366C662.767+724.194+665.814+724.615+668.876+724.617C683.875+724.617+697.178+715.926+701.226+701.488L791.952+377.947L791.951+377.947L792.149+377.243C797.11+359.394+786.701+340.895+768.87+335.871L564.007+278.424C546.15+273.441+527.629+283.85+522.601+301.694L515.483+327.083L514.142+326.707L521.26+301.318C526.496+282.733+545.786+271.892+564.383+277.083L769.246+334.53C787.57+339.692+798.414+358.546+793.662+376.981L793.668+376.982L793.481+377.653L702.567+701.864C698.351+716.9+684.497+726.01+668.876+726.01Z" opacity="1" fill="#2f2e41"/>
<path d="M523.448+334.313L525.781+334.968L532.961+336.98L533.713+334.292L531.025+333.54L533.385+325.121L539.061+320.191L540.572+336.221L536.394+335.044L535.641+337.732L546.365+340.74L547.117+338.052L544.84+337.419L542.654+317.071L553.796+307.385L556.922+308.262L557.674+305.574L546.943+302.566L546.191+305.254L549.729+306.243L535.558+317.378L539.485+303.374L542.173+304.126L542.925+301.438L532.195+298.43L531.442+301.118L535.467+302.246L527.007+332.412L522.982+331.284L522.877+331.646L522.446+333.206L523.448+334.313Z" opacity="1" fill="#19a1fb"/>
<path d="M540.711+359.73C538.031+360.891+535.416+362.195+532.877+363.637C532.41+363.901+531.944+364.173+531.484+364.444L531.484+355.831C531.488+352.732+531.049+349.648+530.182+346.673C530.586+346.423+530.997+346.151+531.401+345.88C531.77+345.636+532.146+345.385+532.515+345.134C534.807+350.234+537.55+355.119+540.711+359.73Z" opacity="1" fill="#19a1fb"/>
<path d="M668.337+701.834L665.214+700.958L664.462+703.64L675.19+706.648L675.942+703.966L672.409+702.975L686.576+691.836L682.647+705.846L679.965+705.094L679.213+707.776L689.941+710.784L690.693+708.103L686.67+706.974L695.13+676.802L699.154+677.93L699.906+675.248L689.178+672.24L688.426+674.922L691.108+675.674L688.746+684.096L683.074+689.026L681.566+672.998L685.743+674.17L686.496+671.488L675.768+668.48L675.016+671.161L677.295+671.801L679.483+692.146L668.337+701.834Z" opacity="1" fill="#19a1fb"/>
<path d="M681.421+649.488C686.442+647.334+691.218+644.65+695.668+641.481C698.052+646.534+700.793+651.411+703.87+656.075C698.882+658.295+694.112+660.975+689.623+664.082C687.328+658.984+684.583+654.099+681.421+649.488Z" opacity="1" fill="#19a1fb"/>
<path d="M587.469+504.5C587.469+504.5+583.947+527.379+582.9+528.532C581.854+529.684+590.212+556.618+590.212+556.618L617.014+540.99C617.014+540.99+622.229+512.077+623.946+511.113C625.663+510.148+587.469+504.5+587.469+504.5Z" opacity="1" fill="#ffb8b8"/>
<path d="M587.469+504.5C587.469+504.5+583.947+527.379+582.9+528.532C581.854+529.684+590.212+556.618+590.212+556.618L617.014+540.99C617.014+540.99+622.229+512.077+623.946+511.113C625.663+510.148+587.469+504.5+587.469+504.5Z" opacity="0.1" fill="#000000"/>
<path d="M581.743+500.19C581.743+485.575+593.591+473.728+608.205+473.728C622.819+473.728+634.666+485.575+634.666+500.19C634.666+514.804+622.819+526.651+608.205+526.651C593.591+526.651+581.743+514.804+581.743+500.19Z" opacity="1" fill="#ffb8b8"/>
<path d="M596.736+541.09L594.43+538.997L584.065+524.245C584.065+524.245+582.875+523.462+581.747+527.485L580.619+531.508L570.881+535.286L549.334+627.602L606.996+643.771L630.743+551.349L619.589+539.543L618.354+533.847L601.135+540.877L596.736+541.09Z" opacity="1" fill="#ffffff"/>
<path d="M531.484+637.062L532.877+637.452L622.679+662.632L652.706+563.296C652.706+563.296+645.603+557.684+640.046+556.848C640.046+556.848+630.715+546.277+626.697+545.149C622.672+544.021+618.223+534.098+618.223+534.098C618.223+534.098+613.522+550.859+605.444+561.611C597.367+572.363+583.3+609.646+583.3+609.646L579.331+541.271L583.788+524.078C581.196+525.613+578.838+527.51+576.782+529.711C573.642+533.165+565.627+535.978+565.627+535.978C565.627+535.978+544.513+541.633+540.781+542.037C537.055+542.434+535.335+543.401+535.335+543.401L532.877+560.316L531.484+569.898L531.484+637.062Z" opacity="1" fill="#2f2e41"/>
<path d="M543.74+598.553C542.904+604.103+534.311+627.006+534.311+627.006L532.877+628.448L531.484+629.847L531.484+545.024C531.872+544.603+532.348+544.273+532.877+544.056C533.663+543.729+534.49+543.509+535.335+543.401L538.023+544.154C538.023+544.154+544.576+592.996+543.74+598.553Z" opacity="1" fill="#2f2e41"/>
<path d="M604.91+627.999C604.91+627.999+618.089+604.212+628.065+609.902C638.041+615.592+622.049+631.358+622.049+631.358L604.91+627.999Z" opacity="1" fill="#ffb8b8"/>
<path d="M564.116+618.729C564.116+618.729+538.826+610.914+538.262+612.925C537.698+614.937+530.773+626.736+532.784+627.3C534.796+627.864+550.405+631.518+550.217+632.189C550.029+632.859+557.699+636.456+557.699+636.456L564.116+618.729Z" opacity="1" fill="#ffb8b8"/>
<path d="M613.421+543.515L597.325+544.148L593.973+543.208L580.552+534.298L576.107+547.6L593.032+546.56L596.385+547.5L610.302+557.189L613.421+543.515Z" opacity="1" fill="#19a1fb"/>
<path d="M570.167+643.573L567.695+648.837L532.181+639.088L531.484+637.062L531.484+625.899L532.877+626.442L534.311+627.006L570.167+643.573Z" opacity="1" fill="#2f2e41"/>
<path d="M571.492+620.797C571.492+620.797+563.151+617.012+562.963+617.682C562.775+618.353+551.583+637.634+554.265+638.386C556.947+639.138+566.44+643.97+566.44+643.97L571.492+620.797Z" opacity="1" fill="#ffffff"/>
<path d="M648.013+561.978L652.706+563.294C652.706+563.294+655.388+564.046+655.601+568.445C655.814+572.844+659.454+593.391+657.737+594.356C656.02+595.321+655.538+594.463+656.502+596.18C657.467+597.897+658.326+597.414+657.279+598.567C656.233+599.72+653.831+636.654+646.048+648.936C638.265+661.218+635.902+667.064+633.22+666.312L563.703+646.818C563.703+646.818+566.798+619.481+569.668+619.563C572.538+619.644+619.555+629.935+619.555+629.935C619.555+629.935+637.767+559.828+648.013+561.978Z" opacity="1" fill="#2f2e41"/>
<path d="M592.614+471.187L588.272+468.073C588.272+468.073+601.215+460.799+615.032+465.622L612.186+460.557C612.186+460.557+622.841+459.753+629.043+471.447C632.303+477.594+636.05+484.796+637.581+492.155L642.758+493.607L639.386+497.322L645.737+503.765L638.192+500.812C637.881+504.749+636.546+508.536+634.319+511.798L631.206+516.14C631.206+516.14+628.117+500.104+628.61+498.346L627.378+502.741C627.378+502.741+623.653+497.43+624.392+494.793L620.892+497.13L620.93+491.926L603.313+492.201L607.059+488.985L596.581+487.469L601.892+483.743C601.892+483.743+588.863+486.253+587.068+490.964C585.273+495.675+577.834+500.226+577.834+500.226L576.43+495.091C576.43+495.091+578.02+474.205+592.614+471.187Z" opacity="1" fill="#2f2e41"/>
<path d="M583.517+480.706L583.724+479.805C585.736+471.044+570.257+454.753+570.101+454.589L569.826+454.302L569.933+453.92C570.24+452.828+571.468+451.858+582.23+454.191C586.421+455.099+590.6+456.206+592.349+456.681C592.154+451.679+585.953+445.052+585.887+444.982L585.107+444.155L586.198+443.835C593.346+441.74+601.713+448.69+604.387+451.15L608.856+435.211L617.701+448.275C623.131+440.147+630.985+440.476+631.328+440.495L632.43+440.555L631.901+441.524C628.18+448.331+627.51+452.803+627.471+455.007C637.37+443.246+646.291+444.271+646.68+444.322L648.031+444.501L647.094+445.491C634.134+459.185+632.608+477.249+632.594+477.43L632.548+478.039L583.517+480.706ZM571.643+454.199C574.38+457.165+586.214+470.55+585.234+479.218L631.27+476.714C631.649+473.491+633.984+458.157+644.991+445.726C641.992+445.994+634.915+447.703+627.46+457.23L626.606+458.322L626.24+456.985C626.183+456.774+624.937+451.877+630.107+441.928C627.737+442.152+622.218+443.393+618.318+449.904L617.757+450.841L609.387+438.479L605.091+453.798L604.248+452.945C604.154+452.849+595.174+443.858+587.707+444.93C589.624+447.162+594.21+453.04+593.707+457.661L593.619+458.478L592.827+458.256C584.033+455.79+573.989+453.686+571.643+454.199Z" opacity="1" fill="#19a1fb"/>
<path d="M650.149+440.653C648.821+440.281+648.046+438.902+648.419+437.574C648.791+436.246+650.17+435.471+651.498+435.843C652.827+436.216+653.601+437.595+653.229+438.923C652.855+440.25+651.478+441.024+650.149+440.653ZM651.122+437.184C650.535+437.02+649.925+437.362+649.76+437.95C649.595+438.538+649.938+439.148+650.526+439.312C651.113+439.477+651.723+439.134+651.888+438.547C652.052+437.959+651.709+437.35+651.122+437.184Z" opacity="1" fill="#19a1fb"/>
<path d="M632.804+435.79C631.476+435.417+630.701+434.038+631.073+432.71C631.446+431.382+632.825+430.607+634.153+430.979C635.481+431.352+636.256+432.731+635.883+434.059C635.51+435.386+634.132+436.16+632.804+435.79ZM633.777+432.32C633.189+432.156+632.579+432.498+632.414+433.086C632.25+433.674+632.592+434.284+633.18+434.449C633.768+434.613+634.378+434.271+634.542+433.683C634.706+433.095+634.364+432.486+633.777+432.32Z" opacity="1" fill="#19a1fb"/>
<path d="M606.437+433.073C605.109+432.701+604.334+431.322+604.707+429.994C605.079+428.666+606.458+427.891+607.786+428.263C609.114+428.636+609.889+430.015+609.517+431.343C609.143+432.67+607.765+433.444+606.437+433.073ZM607.41+429.604C606.822+429.44+606.212+429.782+606.048+430.37C605.883+430.958+606.226+431.568+606.813+431.732C607.401+431.897+608.011+431.554+608.176+430.967C608.34+430.379+607.997+429.77+607.41+429.604Z" opacity="1" fill="#19a1fb"/>
<path d="M564.345+453.076C563.017+452.703+562.242+451.325+562.614+449.996C562.987+448.668+564.365+447.893+565.694+448.266C567.022+448.638+567.797+450.017+567.424+451.345C567.051+452.673+565.673+453.447+564.345+453.076ZM565.318+449.607C564.73+449.442+564.12+449.785+563.955+450.373C563.791+450.96+564.133+451.57+564.721+451.735C565.309+451.9+565.919+451.557+566.083+450.969C566.247+450.382+565.905+449.772+565.318+449.607Z" opacity="1" fill="#19a1fb"/>
<path d="M580.621+441.737C579.293+441.365+578.518+439.986+578.891+438.658C579.263+437.329+580.642+436.554+581.97+436.927C583.298+437.299+584.073+438.678+583.701+440.006C583.327+441.334+581.949+442.108+580.621+441.737ZM581.594+438.268C581.006+438.103+580.396+438.446+580.232+439.034C580.067+439.621+580.41+440.231+580.997+440.396C581.585+440.561+582.195+440.218+582.36+439.63C582.524+439.043+582.181+438.433+581.594+438.268Z" opacity="1" fill="#19a1fb"/>
<path d="M663.633+676.287L662.964+676.099L531.699+639.291L532.075+637.949L662.669+674.57L745.209+380.223L561.157+328.613L533.085+428.725L531.744+428.349L560.194+326.895L560.863+327.083L746.925+379.258L746.737+379.928L663.633+676.287Z" opacity="1" fill="#2f2e41"/>
<path d="M191.059+703.234C199.713+719.284+218.081+726.175+218.081+726.175C218.081+726.175+222.418+707.042+213.763+690.991C205.109+674.941+186.74+668.051+186.74+668.051C186.74+668.051+182.404+687.184+191.059+703.234Z" opacity="1" fill="#2f2e41"/>
<path d="M197.007+697.954C212.632+707.354+218.65+726.027+218.65+726.027C218.65+726.027+199.335+729.457+183.709+720.057C168.084+710.656+162.066+691.984+162.066+691.984C162.066+691.984+181.382+688.553+197.007+697.954Z" opacity="1" fill="#19a1fb"/>
<path d="M531.401+345.88C530.202+341.933+528.298+338.235+525.781+334.968C524.885+333.8+523.915+332.69+522.877+331.646C516.453+325.178+507.712+321.543+498.595+321.549L285.83+321.549C266.905+321.568+251.568+336.905+251.548+355.831L251.548+692.547C251.568+711.473+266.905+726.81+285.83+726.829L498.595+726.829C517.521+726.81+532.858+711.473+532.877+692.547L532.877+355.831C532.881+352.459+532.383+349.105+531.401+345.88ZM531.484+692.547C531.462+710.702+516.75+725.414+498.595+725.436L285.83+725.436C267.675+725.414+252.963+710.702+252.941+692.547L252.941+355.831C252.963+337.676+267.675+322.963+285.83+322.942L498.595+322.942C507.619+322.938+516.245+326.65+522.446+333.206C522.787+333.568+523.121+333.937+523.448+334.313C528.632+340.283+531.485+347.924+531.484+355.831L531.484+692.547Z" opacity="1" fill="#2f2e41"/>
<path d="M285.49+375.662C285.452+375.572+285.404+375.489+285.361+375.402C286.932+372.329+287.724+368.917+287.67+365.466C287.67+354.672+280.924+347.132+271.266+347.132C261.607+347.132+254.862+354.672+254.862+365.466C254.862+376.261+261.607+383.8+271.266+383.8C275.881+383.893+280.298+381.921+283.309+378.422C286.402+383.426+292.38+384.086+292.656+384.114L292.982+380.914C292.757+380.89+287.45+380.269+285.49+375.662ZM271.266+380.584C263.501+380.584+258.078+374.367+258.078+365.466C258.078+356.565+263.501+350.349+271.266+350.349C279.03+350.349+284.453+356.565+284.453+365.466C284.484+368.004+283.984+370.52+282.984+372.852C278.183+369.935+269.251+371.678+268.04+371.934L268.701+375.081C271.982+374.394+278.509+373.843+281.35+375.626C278.984+378.807+275.229+380.652+271.266+380.584Z" opacity="1" fill="#19a1fb"/>
<path d="M272.439+391.451C270.259+389.274+266.728+389.275+264.55+391.453C262.372+393.632+262.37+397.163+264.547+399.343L272.439+407.235L280.331+399.343C282.506+397.163+282.503+393.633+280.326+391.456C278.149+389.278+274.619+389.276+272.439+391.451Z" opacity="1" fill="#19a1fb"/>
<path d="M498.935+674.872C498.974+674.963+499.022+675.046+499.064+675.133C497.493+678.206+496.701+681.618+496.756+685.068C496.756+695.863+503.502+703.402+513.16+703.402C522.818+703.402+529.564+695.863+529.564+685.068C529.564+674.274+522.818+666.735+513.16+666.735C508.544+666.641+504.127+668.613+501.116+672.113C498.023+667.109+492.045+666.448+491.77+666.421L491.444+669.621C491.669+669.645+496.976+670.266+498.935+674.872ZM513.16+669.951C520.925+669.951+526.347+676.168+526.347+685.068C526.347+693.969+520.925+700.186+513.16+700.186C505.395+700.186+499.972+693.969+499.972+685.068C499.941+682.531+500.441+680.015+501.442+677.682C506.242+680.599+515.174+678.856+516.386+678.601L515.724+675.453C512.443+676.14+505.916+676.691+503.075+674.909C505.442+671.728+509.196+669.882+513.16+669.951Z" opacity="1" fill="#19a1fb"/>
<path d="M511.986+659.084C514.167+661.253+517.692+661.249+519.868+659.073C522.043+656.898+522.047+653.373+519.878+651.192L511.986+643.3L504.094+651.192C501.925+653.373+501.93+656.898+504.105+659.073C506.28+661.249+509.805+661.253+511.986+659.084Z" opacity="1" fill="#19a1fb"/>
<path d="M409.375+512.846C399.895+496.827+381.139+496.081+381.139+496.081C381.139+496.081+362.862+493.744+351.138+518.14C340.21+540.88+325.127+562.836+348.71+568.159L352.969+554.901L355.607+569.146C358.965+569.388+362.333+569.445+365.697+569.319C390.951+568.503+415.003+569.557+414.228+560.495C413.199+548.448+418.497+528.259+409.375+512.846Z" opacity="1" fill="#2f2e41"/>
<path d="M374.401+567.424C374.447+569.227+374.433+571.128+373.538+572.694C371.761+575.797+367.425+576.261+364.817+578.707C362.074+581.279+361.764+585.454+361.633+589.212C361.496+593.14+361.38+597.198+362.814+600.859C363.692+602.875+364.803+604.782+366.122+606.542C367.715+608.837+369.322+611.122+370.944+613.397C371.81+614.678+372.775+615.889+373.83+617.02C376.735+619.978+380.719+621.616+384.697+622.785C387.267+623.54+390.043+624.128+392.593+623.308C394.28+622.649+395.835+621.693+397.184+620.484C399.081+618.978+401.006+617.441+402.381+615.447C404.523+612.341+405.115+608.452+405.559+604.705C406.871+593.626+407.382+582.467+407.087+571.314C407.141+570.099+406.923+568.887+406.449+567.766C405.129+565.187+401.591+564.637+399.728+562.419C398.134+560.522+398.069+557.815+398.083+555.338L398.117+549.032C398.173+548.501+398.066+547.965+397.811+547.496C397.344+546.985+396.693+546.681+396.002+546.652C392.083+546.001+388.109+545.735+384.138+545.858C380.918+545.956+374.741+545.687+371.957+547.48C369.43+549.108+372.594+553.603+373.179+556.128C373.966+559.843+374.376+563.627+374.401+567.424Z" opacity="1" fill="#a0616a"/>
<path d="M356.302+531.105C356.302+517.028+367.714+505.616+381.791+505.616C395.868+505.616+407.28+517.028+407.28+531.105C407.28+545.183+395.868+556.595+381.791+556.595C367.714+556.595+356.302+545.183+356.302+531.105Z" opacity="1" fill="#a0616a"/>
<path d="M371.295+594.24C369.674+591.83+368.34+589.239+367.32+586.52C366.409+583.765+366.17+580.686+367.251+577.994C364.497+576.395+360.757+577.69+358.751+580.163C356.745+582.636+356.131+585.952+355.955+589.131C355.778+592.311+355.965+595.537+355.273+598.646C353.742+605.523+348.062+611.176+347.639+618.209C347.224+625.128+351.968+631.155+354.302+637.681C355.717+641.749+356.308+646.058+356.042+650.356C355.966+651.744+355.879+653.325+356.858+654.311C357.367+654.757+357.97+655.081+358.622+655.262C369.885+659.224+382.05+659.567+393.986+659.87L413.7+660.369C414.892+660.511+416.1+660.309+417.181+659.786C418.949+658.702+419.186+656.271+419.216+654.196C419.475+636.33+418.715+618.467+417.955+600.615C417.68+594.145+417.4+587.637+416.028+581.307C415.678+579.696+415.106+577.904+413.618+577.192C412.358+576.59+410.864+576.98+409.555+577.463C403.445+579.736+398.163+583.801+394.403+589.127C390.358+594.884+388.369+601.79+384.41+607.59C381.537+611.8+379.876+608.131+377.962+605.031C375.74+601.434+373.518+597.837+371.295+594.24Z" opacity="1" fill="#ffffff"/>
<path d="M368.244+578.434C367.743+578.789+367.248+579.165+366.775+579.562C365+581.027+363.41+582.701+362.039+584.548C359.77+587.643+357.964+591.051+356.678+594.666C354.366+601.003+353.363+607.73+352.402+614.401C351.982+616.859+351.757+619.345+351.726+621.838C351.873+631.002+357.29+639.491+357.297+648.662C357.297+649.01+357.29+649.351+357.269+649.699C357.205+651.201+357.028+652.695+356.74+654.17C356.343+656.322+355.772+658.446+355.208+660.563C353.788+665.869+352.256+671.37+349.484+676.029C349.206+676.502+348.906+676.969+348.6+677.421L329.102+677.421C329.255+676.955+329.415+676.495+329.568+676.029C332.89+666.189+336.209+656.352+339.526+646.517C340.543+643.509+341.56+640.487+342.277+637.395C343.097+633.577+343.658+629.708+343.955+625.814C344.721+617.744+345.225+609.657+345.466+601.553C345.557+598.643+345.619+595.669+346.559+592.912C347.441+590.664+348.606+588.54+350.027+586.589C352.04+583.559+354.052+580.53+356.065+577.501C357.186+575.816+358.363+574.082+360.09+573.031C361.531+572.146+363.244+571.826+364.762+571.081C365.718+570.539+366.634+569.931+367.506+569.263C369.776+567.655+372.443+565.962+374.4+567.606C374.717+567.869+374.99+568.182+375.208+568.532C375.319+568.704+375.419+568.883+375.507+569.068C377.387+573.135+370.772+576.645+368.244+578.434Z" opacity="1" fill="#19a1fb"/>
<path d="M432.476+677.422L342.172+677.422C342.66+676.976+343.14+676.509+343.607+676.029C343.677+675.959+343.739+675.89+343.809+675.82C347.263+672.234+348.05+667.826+349.784+663.16C351.086+659.643+352.388+656.129+353.69+652.617C353.896+651.934+354.235+651.297+354.686+650.744C355.063+650.354+355.536+650.071+356.058+649.922C356.452+649.801+356.858+649.727+357.269+649.699C357.856+649.661+358.445+649.661+359.031+649.699C375.235+650.535+391.428+651.554+407.609+652.756C409.698+652.917+411.787+653.077+413.876+653.237C415.582+654.504+417.268+655.848+418.876+657.269C424.106+661.865+428.639+667.276+431.237+673.668C431.55+674.441+431.835+675.228+432.072+676.029C432.225+676.488+432.358+676.955+432.476+677.422Z" opacity="1" fill="#19a1fb"/>
<path d="M405.184+511.302L386.654+501.596L361.065+505.566L355.77+528.95L368.949+528.443L372.631+519.852L372.631+528.301L378.712+528.067L382.242+514.39L384.448+528.95L406.066+528.508L405.184+511.302Z" opacity="1" fill="#2f2e41"/>
<path d="M432.476+677.422L412.087+677.422C411.941+676.962+411.801+676.495+411.669+676.029C410.229+670.849+409.172+665.57+408.507+660.235C408.292+658.71+408.104+657.178+407.929+655.653C407.818+654.685+407.714+653.724+407.609+652.757C406.439+642.005+405.541+631.149+402.254+620.856C401.857+619.61+401.426+618.37+401.008+617.131C400.236+614.997+399.631+612.806+399.197+610.578C398.306+605.481+398.974+600.202+398.055+595.112C397.54+592.271+396.516+589.771+395.896+587.167C395.502+585.595+395.347+583.973+395.437+582.355C396.937+580.939+398.826+580.003+400.861+579.667C401.565+579.548+402.359+579.458+402.783+578.894C403.034+578.465+403.146+577.968+403.104+577.473C403.153+574.189+402.964+570.905+402.54+567.648C402.4+566.506+402.226+565.364+402.017+564.229C402.01+564.173+401.997+564.124+401.99+564.068C403.689+563.33+405.604+563.323+407.449+563.33C409.461+563.337+411.467+563.337+413.472+563.344C417.184+563.358+420.896+563.37+424.607+563.379C428.061+563.386+431.633+563.421+434.774+564.848C438.019+566.332+440.484+569.194+442.114+572.369C443.743+575.544+444.628+579.04+445.428+582.515C445.65+583.477+445.767+584.46+445.777+585.447C445.93+593.288+440.08+601.184+439.495+609.199C439.307+611.797+439.523+614.415+439.286+617.012C439.05+619.617+438.353+622.166+438.228+624.77C438.221+624.902+438.214+625.041+438.214+625.174C438.137+628.565+439.126+631.887+440.268+635.083C442.037+640.048+444.189+644.86+446.41+649.644C448.555+654.275+450.755+658.884+452.733+663.578C453.762+665.757+454.454+668.079+454.787+670.465C455.007+672.383+454.64+674.323+453.736+676.029C453.504+676.45+453.226+676.845+452.907+677.206L452.893+677.22C452.831+677.289+452.768+677.359+452.705+677.421C452.705+677.421+432.476+677.421+432.476+677.422Z" opacity="1" fill="#19a1fb"/>
<path d="M451.898+670.277C451.812+671.204+451.56+672.107+451.152+672.944C451.118+673.027+451.083+673.104+451.048+673.188C450.644+674.142+450.233+675.082+449.808+676.029C449.6+676.488+449.391+676.955+449.175+677.422L437.643+677.422C438.06+676.985+438.447+676.52+438.799+676.029C440.568+673.571+441.591+670.583+443.395+667.93C443.64+667.567+443.922+667.231+444.238+666.927C447.127+664.128+452.079+664.699+451.898+670.277Z" opacity="1" fill="#ffb8b8"/>
<path d="M459.404+677.422C459.552+676.964+459.675+676.499+459.773+676.029C459.857+675.66+459.927+675.298+459.982+674.929C460.351+672.498+460.344+670.012+460.922+667.624C461.737+664.205+464.181+660.159+462.169+657.283C463.734+656.962+465.211+656.301+466.493+655.347C467.691+654.302+468.387+652.492+467.663+651.071C466.946+649.672+465.003+648.745+465.268+647.193C465.4+646.7+465.632+646.24+465.95+645.842C468.108+642.437+468.04+638.077+465.776+634.742C465.142+633.836+464.362+633.043+463.784+632.096C463.152+630.937+462.668+629.704+462.343+628.426C460.332+621.946+457.368+615.802+453.548+610.195C452.701+609.116+452.044+607.901+451.605+606.602C451.348+605.194+451.297+603.756+451.452+602.333C451.591+596.707+449.488+591.212+446.459+586.477C446.236+586.129+446.006+585.788+445.777+585.447C442.852+581.136+439.224+577.355+435.61+573.602C434.119+574.298+432.803+574.751+432.03+576.199C431.651+577.016+431.418+577.892+431.341+578.789C430.352+585.683+429.496+592.619+428.827+599.548C428.493+603.05+428.152+606.581+428.549+610.077C428.946+613.572+430.136+617.075+432.504+619.673C433.987+621.302+435.867+622.514+437.476+624.018C437.734+624.262+437.984+624.512+438.228+624.77C439.387+626.005+440.416+627.356+441.299+628.802C445.158+635.036+446.947+642.331+446.41+649.644C446.313+650.962+446.139+652.273+445.888+653.571C445.582+655.429+444.955+657.22+444.036+658.864C443.304+660.068+442.343+661.12+441.682+662.366C441.02+663.613+440.707+665.166+441.362+666.412C442.343+666.411+443.317+666.586+444.238+666.927C446.406+667.763+448.29+669.201+449.669+671.071C450.178+671.743+450.638+672.451+451.048+673.188C451.565+674.106+452.025+675.055+452.427+676.029C452.594+676.412+452.754+676.809+452.907+677.206C452.942+677.275+452.97+677.347+452.991+677.422L459.404+677.422Z" opacity="1" fill="#19a1fb"/>
<path d="M402.471+556.269L387.705+562.709L384.24+563.052L368.499+559.63L369.193+573.637L384.583+566.517L388.048+566.174L404.535+570.141L402.471+556.269Z" opacity="1" fill="#2f2e41"/>
<path d="M432.072+676.029C432.225+676.488+432.358+676.955+432.476+677.422L437.643+677.422C438.06+676.985+438.447+676.52+438.799+676.029L432.072+676.029ZM295.593+370.328L295.593+677.422L488.136+677.422L488.136+370.328L295.593+370.328ZM486.743+676.029L296.986+676.029L296.986+371.72L486.743+371.72L486.743+676.029ZM432.072+676.029C432.225+676.488+432.358+676.955+432.476+677.422L437.643+677.422C438.06+676.985+438.447+676.52+438.799+676.029L432.072+676.029Z" opacity="1" fill="#2f2e41"/>
<path d="M358.858+504.678L358.977+504.079C359.013+503.902+362.421+486.096+353.64+469.412L353.005+468.205L354.354+468.398C354.742+468.454+363.608+469.876+369.965+483.873C370.523+481.74+371.084+477.254+369.34+469.695L369.091+468.619L370.169+468.858C370.505+468.933+378.156+470.736+381.189+480.029L393.233+469.838L393.233+486.392C396.472+484.745+406.404+480.312+412.721+484.26L413.685+484.862L412.711+485.447C412.628+485.497+404.869+490.204+403.33+494.967C405.143+494.983+409.465+495.045+413.745+495.302C424.738+495.961+425.659+497.227+425.659+498.361L425.659+498.759L425.317+498.96C425.122+499.076+405.82+510.583+405.392+519.561L405.348+520.485L358.858+504.678ZM402.445+496.355L401.622+496.355L401.758+495.544C402.522+490.959+408.524+486.538+410.973+484.906C404.073+481.858+392.998+488.091+392.882+488.157L391.84+488.752L391.84+472.841L380.443+482.485L380.155+481.43C378.158+474.108+373.179+471.423+370.958+470.568C373.25+481.543+370.728+485.922+370.615+486.109L369.902+487.298L369.374+486.016C364.769+474.83+358.417+471.273+355.601+470.205C362.843+485.147+360.951+500.542+360.446+503.748L404.096+518.589C405.493+509.978+420.501+500.285+423.937+498.168C421.816+497.041+411.577+496.355+402.445+496.355Z" opacity="1" fill="#19a1fb"/>
<path d="M349.506+461.431C349.506+460.052+350.624+458.933+352.004+458.933C353.383+458.933+354.502+460.052+354.502+461.431C354.502+462.811+353.383+463.929+352.004+463.929C350.625+463.928+349.507+462.81+349.506+461.431ZM350.899+461.431C350.899+462.042+351.393+462.536+352.004+462.536C352.614+462.536+353.109+462.042+353.109+461.431C353.109+460.821+352.614+460.326+352.004+460.326C351.394+460.327+350.899+460.821+350.899+461.431Z" opacity="1" fill="#19a1fb"/>
<path d="M367.521+461.431C367.521+460.052+368.639+458.933+370.018+458.933C371.398+458.933+372.516+460.052+372.516+461.431C372.516+462.811+371.398+463.929+370.018+463.929C368.639+463.928+367.522+462.81+367.521+461.431ZM368.913+461.431C368.913+462.042+369.408+462.536+370.018+462.536C370.629+462.536+371.123+462.042+371.123+461.431C371.123+460.821+370.629+460.326+370.018+460.326C369.408+460.327+368.914+460.821+368.913+461.431Z" opacity="1" fill="#19a1fb"/>
<path d="M393.641+465.935C393.641+464.556+394.76+463.437+396.139+463.437C397.519+463.437+398.637+464.556+398.637+465.935C398.637+467.315+397.519+468.433+396.139+468.433C394.76+468.431+393.643+467.314+393.641+465.935ZM395.034+465.935C395.034+466.545+395.529+467.04+396.139+467.04C396.75+467.04+397.244+466.545+397.244+465.935C397.244+465.325+396.75+464.83+396.139+464.83C395.529+464.831+395.035+465.325+395.034+465.935Z" opacity="1" fill="#19a1fb"/>
<path d="M428.77+496.56C428.77+495.18+429.888+494.062+431.268+494.062C432.647+494.062+433.765+495.18+433.765+496.56C433.765+497.939+432.647+499.057+431.268+499.057C429.889+499.056+428.771+497.938+428.77+496.56ZM430.162+496.56C430.162+497.17+430.657+497.665+431.268+497.665C431.878+497.665+432.373+497.17+432.373+496.56C432.373+495.949+431.878+495.454+431.268+495.454C430.658+495.455+430.163+495.95+430.162+496.56Z" opacity="1" fill="#19a1fb"/>
<path d="M416.159+481.247C416.159+479.868+417.278+478.749+418.657+478.749C420.037+478.749+421.155+479.867+421.155+481.247C421.155+482.627+420.037+483.745+418.657+483.745C417.278+483.744+416.161+482.626+416.159+481.247ZM417.552+481.247C417.552+481.858+418.047+482.353+418.657+482.353C419.268+482.353+419.763+481.858+419.763+481.247C419.763+480.637+419.268+480.142+418.657+480.142C418.047+480.143+417.553+480.637+417.552+481.247Z" opacity="1" fill="#19a1fb"/>
<path d="M170.423+725.122L803.412+725.122L803.412+725.122L803.412+726.515L803.412+726.515L170.423+726.515L170.423+726.515L170.423+725.122L170.423+725.122Z" opacity="1" fill="#3f3d56"/>
<g opacity="1">
<path d="M412.715+104.138L395.311+157.338L382.087+157.338L370.383+121.314L358.299+157.338L345.151+157.338L327.671+104.138L340.439+104.138L352.447+141.53L364.987+104.138L376.387+104.138L388.547+141.834L400.935+104.138L412.715+104.138Z" opacity="1" fill="#19a1fb"/>
<path d="M459.911+137.046C459.911+137.198+459.835+138.262+459.683+140.238L428.751+140.238C429.308+142.771+430.626+144.772+432.703+146.242C434.78+147.711+437.364+148.446+440.455+148.446C442.583+148.446+444.47+148.129+446.117+147.496C447.764+146.862+449.296+145.862+450.715+144.494L457.023+151.334C453.172+155.742+447.548+157.946+440.151+157.946C435.54+157.946+431.462+157.046+427.915+155.248C424.368+153.449+421.632+150.954+419.707+147.762C417.782+144.57+416.819+140.947+416.819+136.894C416.819+132.891+417.769+129.281+419.669+126.064C421.569+122.846+424.178+120.338+427.497+118.54C430.816+116.741+434.527+115.842+438.631+115.842C442.634+115.842+446.256+116.703+449.499+118.426C452.742+120.148+455.288+122.618+457.137+125.836C458.986+129.053+459.911+132.79+459.911+137.046ZM438.707+124.81C436.022+124.81+433.767+125.57+431.943+127.09C430.119+128.61+429.004+130.687+428.599+133.322L448.739+133.322C448.334+130.738+447.219+128.673+445.395+127.128C443.571+125.582+441.342+124.81+438.707+124.81Z" opacity="1" fill="#19a1fb"/>
<path d="M467.815+100.946L479.671+100.946L479.671+157.338L467.815+157.338L467.815+100.946Z" opacity="1" fill="#19a1fb"/>
<path d="M510.451+157.946C506.094+157.946+502.18+157.046+498.709+155.248C495.238+153.449+492.528+150.954+490.577+147.762C488.626+144.57+487.651+140.947+487.651+136.894C487.651+132.84+488.626+129.218+490.577+126.026C492.528+122.834+495.238+120.338+498.709+118.54C502.18+116.741+506.094+115.842+510.451+115.842C514.758+115.842+518.52+116.741+521.737+118.54C524.954+120.338+527.298+122.91+528.767+126.254L519.571+131.194C517.443+127.444+514.378+125.57+510.375+125.57C507.284+125.57+504.726+126.583+502.699+128.61C500.672+130.636+499.659+133.398+499.659+136.894C499.659+140.39+500.672+143.151+502.699+145.178C504.726+147.204+507.284+148.218+510.375+148.218C514.428+148.218+517.494+146.343+519.571+142.594L528.767+147.61C527.298+150.852+524.954+153.386+521.737+155.21C518.52+157.034+514.758+157.946+510.451+157.946Z" opacity="1" fill="#19a1fb"/>
<path d="M555.063+157.946C550.756+157.946+546.893+157.046+543.473+155.248C540.053+153.449+537.38+150.954+535.455+147.762C533.53+144.57+532.567+140.947+532.567+136.894C532.567+132.84+533.53+129.218+535.455+126.026C537.38+122.834+540.053+120.338+543.473+118.54C546.893+116.741+550.756+115.842+555.063+115.842C559.37+115.842+563.22+116.741+566.615+118.54C570.01+120.338+572.67+122.834+574.595+126.026C576.52+129.218+577.483+132.84+577.483+136.894C577.483+140.947+576.52+144.57+574.595+147.762C572.67+150.954+570.01+153.449+566.615+155.248C563.22+157.046+559.37+157.946+555.063+157.946ZM555.063+148.218C558.103+148.218+560.598+147.192+562.549+145.14C564.5+143.088+565.475+140.339+565.475+136.894C565.475+133.448+564.5+130.7+562.549+128.648C560.598+126.596+558.103+125.57+555.063+125.57C552.023+125.57+549.515+126.596+547.539+128.648C545.563+130.7+544.575+133.448+544.575+136.894C544.575+140.339+545.563+143.088+547.539+145.14C549.515+147.192+552.023+148.218+555.063+148.218Z" opacity="1" fill="#19a1fb"/>
<path d="M637.751+115.842C642.868+115.842+646.934+117.349+649.949+120.364C652.964+123.378+654.471+127.9+654.471+133.93L654.471+157.338L642.615+157.338L642.615+135.754C642.615+132.511+641.944+130.092+640.601+128.496C639.258+126.9+637.346+126.102+634.863+126.102C632.076+126.102+629.872+127.001+628.251+128.8C626.63+130.598+625.819+133.271+625.819+136.818L625.819+157.338L613.963+157.338L613.963+135.754C613.963+129.319+611.379+126.102+606.211+126.102C603.475+126.102+601.296+127.001+599.675+128.8C598.054+130.598+597.243+133.271+597.243+136.818L597.243+157.338L585.387+157.338L585.387+116.45L596.711+116.45L596.711+121.162C598.231+119.439+600.093+118.122+602.297+117.21C604.501+116.298+606.92+115.842+609.555+115.842C612.443+115.842+615.052+116.412+617.383+117.552C619.714+118.692+621.588+120.351+623.007+122.53C624.679+120.402+626.794+118.755+629.353+117.59C631.912+116.424+634.711+115.842+637.751+115.842Z" opacity="1" fill="#19a1fb"/>
<path d="M705.163+137.046C705.163+137.198+705.087+138.262+704.935+140.238L674.003+140.238C674.56+142.771+675.878+144.772+677.955+146.242C680.032+147.711+682.616+148.446+685.707+148.446C687.835+148.446+689.722+148.129+691.369+147.496C693.016+146.862+694.548+145.862+695.967+144.494L702.275+151.334C698.424+155.742+692.8+157.946+685.403+157.946C680.792+157.946+676.714+157.046+673.167+155.248C669.62+153.449+666.884+150.954+664.959+147.762C663.034+144.57+662.071+140.947+662.071+136.894C662.071+132.891+663.021+129.281+664.921+126.064C666.821+122.846+669.43+120.338+672.749+118.54C676.068+116.741+679.779+115.842+683.883+115.842C687.886+115.842+691.508+116.703+694.751+118.426C697.994+120.148+700.54+122.618+702.389+125.836C704.238+129.053+705.163+132.79+705.163+137.046ZM683.959+124.81C681.274+124.81+679.019+125.57+677.195+127.09C675.371+128.61+674.256+130.687+673.851+133.322L693.991+133.322C693.586+130.738+692.471+128.673+690.647+127.128C688.823+125.582+686.594+124.81+683.959+124.81Z" opacity="1" fill="#19a1fb"/>
<path d="M462.115+222.674C465.155+223.636+467.536+225.245+469.259+227.5C470.982+229.754+471.843+232.528+471.843+235.822C471.843+240.483+470.032+244.068+466.409+246.576C462.786+249.084+457.504+250.338+450.563+250.338L423.051+250.338L423.051+197.138L449.043+197.138C455.528+197.138+460.506+198.379+463.977+200.862C467.448+203.344+469.183+206.714+469.183+210.97C469.183+213.554+468.562+215.859+467.321+217.886C466.08+219.912+464.344+221.508+462.115+222.674ZM435.287+206.41L435.287+218.95L447.523+218.95C450.563+218.95+452.868+218.418+454.439+217.354C456.01+216.29+456.795+214.719+456.795+212.642C456.795+210.564+456.01+209.006+454.439+207.968C452.868+206.929+450.563+206.41+447.523+206.41L435.287+206.41ZM449.651+241.066C452.894+241.066+455.338+240.534+456.985+239.47C458.632+238.406+459.455+236.759+459.455+234.53C459.455+230.122+456.187+227.918+449.651+227.918L435.287+227.918L435.287+241.066L449.651+241.066Z" opacity="1" fill="#19a1fb"/>
<path d="M496.847+208.842C503.18+208.842+508.044+210.349+511.439+213.364C514.834+216.378+516.531+220.926+516.531+227.006L516.531+250.338L505.435+250.338L505.435+245.246C503.206+249.046+499.051+250.946+492.971+250.946C489.83+250.946+487.106+250.414+484.801+249.35C482.496+248.286+480.735+246.816+479.519+244.942C478.303+243.067+477.695+240.939+477.695+238.558C477.695+234.758+479.126+231.768+481.989+229.59C484.852+227.411+489.272+226.322+495.251+226.322L504.675+226.322C504.675+223.738+503.89+221.749+502.319+220.356C500.748+218.962+498.392+218.266+495.251+218.266C493.072+218.266+490.932+218.608+488.829+219.292C486.726+219.976+484.94+220.9+483.471+222.066L479.215+213.782C481.444+212.211+484.117+210.995+487.233+210.134C490.349+209.272+493.554+208.842+496.847+208.842ZM495.935+242.966C497.962+242.966+499.76+242.497+501.331+241.56C502.902+240.622+504.016+239.242+504.675+237.418L504.675+233.238L496.543+233.238C491.679+233.238+489.247+234.834+489.247+238.026C489.247+239.546+489.842+240.749+491.033+241.636C492.224+242.522+493.858+242.966+495.935+242.966Z" opacity="1" fill="#19a1fb"/>
<path d="M547.007+250.946C542.65+250.946+538.736+250.046+535.265+248.248C531.794+246.449+529.084+243.954+527.133+240.762C525.182+237.57+524.207+233.947+524.207+229.894C524.207+225.84+525.182+222.218+527.133+219.026C529.084+215.834+531.794+213.338+535.265+211.54C538.736+209.741+542.65+208.842+547.007+208.842C551.314+208.842+555.076+209.741+558.293+211.54C561.51+213.338+563.854+215.91+565.323+219.254L556.127+224.194C553.999+220.444+550.934+218.57+546.931+218.57C543.84+218.57+541.282+219.583+539.255+221.61C537.228+223.636+536.215+226.398+536.215+229.894C536.215+233.39+537.228+236.151+539.255+238.178C541.282+240.204+543.84+241.218+546.931+241.218C550.984+241.218+554.05+239.343+556.127+235.594L565.323+240.61C563.854+243.852+561.51+246.386+558.293+248.21C555.076+250.034+551.314+250.946+547.007+250.946Z" opacity="1" fill="#19a1fb"/>
<path d="M589.719+234.302L584.019+239.926L584.019+250.338L572.163+250.338L572.163+193.946L584.019+193.946L584.019+225.866L601.347+209.45L615.483+209.45L598.459+226.778L617.003+250.338L602.639+250.338L589.719+234.302Z" opacity="1" fill="#19a1fb"/>
</g>
</g>
</svg>
