<?xml version="1.0" encoding="UTF-8" standalone="no"?> <!-- Created with Vectornator for iOS (http://vectornator.io/) --><!DOCTYPE svg PUBLIC "-//W3C//DTD SVG 1.1//EN" "http://www.w3.org/Graphics/SVG/1.1/DTD/svg11.dtd">
<svg height="100%" style="fill-rule:nonzero;clip-rule:evenodd;stroke-linecap:round;stroke-linejoin:round;" xmlns:xlink="http://www.w3.org/1999/xlink" xmlns="http://www.w3.org/2000/svg" xml:space="preserve" width="100%" xmlns:vectornator="http://vectornator.io" version="1.1" viewBox="0 0 1024 768">
<metadata>
<vectornator:setting key="DimensionsVisible" value="1"/>
<vectornator:setting key="PencilOnly" value="0"/>
<vectornator:setting key="SnapToPoints" value="0"/>
<vectornator:setting key="OutlineMode" value="0"/>
<vectornator:setting key="RulersVisible" value="1"/>
<vectornator:setting key="CMYKEnabledKey" value="0"/>
<vectornator:setting key="SnapToEdges" value="0"/>
<vectornator:setting key="GuidesVisible" value="1"/>
<vectornator:setting key="DisplayWhiteBackground" value="0"/>
<vectornator:setting key="doHistoryDisabled" value="0"/>
<vectornator:setting key="SnapToGuides" value="1"/>
<vectornator:setting key="TimeLapseWatermarkDisabled" value="0"/>
<vectornator:setting key="DynamicGuides" value="0"/>
<vectornator:setting key="SnapToGrid" value="0"/>
<vectornator:setting key="Units" value="Pixels"/>
<vectornator:setting key="IsolateActiveLayer" value="0"/>
</metadata>
<defs/>
<g id="Layer 1" vectornator:layerName="Layer 1">
<path d="M803.614+617.909C817.752+604.6+825.041+584.663+817.446+567.798C806.389+584.769+788.187+598.134+767.084+604.778C758.864+607.366+749.412+609.5+744.941+616.028C742.159+620.089+741.956+625.175+743.21+629.774C744.463+634.373+747.044+638.603+749.599+642.775L749.614+643.955C769.619+638.865+789.477+631.218+803.614+617.909Z" opacity="1" fill="#f2f2f2"/>
<path d="M817.021+567.888C814.637+582.575+806.837+596.695+794.912+607.34C792.323+609.748+789.386+611.751+786.199+613.281C782.919+614.734+779.343+615.394+775.761+615.21C772.386+615.102+768.949+614.653+765.603+615.26C762.288+615.843+759.352+617.75+757.471+620.542C755.253+623.804+754.517+627.565+753.943+631.264C753.307+635.371+752.721+639.645+750.017+643.178C749.689+643.606+750.473+644.023+750.8+643.595C755.505+637.449+753.93+629.593+757.105+622.965C758.586+619.871+761.149+617.147+764.981+616.213C768.332+615.397+771.877+615.857+775.292+615.992C778.793+616.214+782.301+615.684+785.579+614.436C788.844+613.054+791.864+611.153+794.523+608.808C800.345+603.833+805.319+597.945+809.252+591.374C813.616+584.176+816.565+576.21+817.94+567.905C818.022+567.397+817.103+567.384+817.021+567.888L817.021+567.888Z" opacity="1" fill="#ffffff"/>
<path d="M798.998+604.058C803.975+607.143+810.36+606.735+814.904+603.042C815.324+602.68+814.697+602.096+814.276+602.458C810.051+605.905+804.098+606.275+799.478+603.377C799.003+603.072+798.525+603.754+798.998+604.058Z" opacity="1" fill="#ffffff"/>
<path d="M777.464+615.46C776.508+610.271+777.818+604.921+781.061+600.759C781.387+600.33+780.604+599.913+780.278+600.342C776.912+604.679+775.562+610.249+776.57+615.646C776.668+616.154+777.561+615.965+777.464+615.46Z" opacity="1" fill="#ffffff"/>
<path d="M812.452+583.961C810.414+583.235+808.898+581.505+808.443+579.39C808.352+578.881+807.46+579.071+807.55+579.576C808.062+581.909+809.729+583.819+811.972+584.642C812.187+584.75+812.449+584.696+812.604+584.51C812.666+584.42+812.685+584.306+812.656+584.201C812.626+584.095+812.552+584.007+812.452+583.961Z" opacity="1" fill="#ffffff"/>
<path d="M750.406+548.622C750.452+548.941+750.499+549.26+750.539+549.583C751.135+553.866+751.328+558.194+751.118+562.513C751.108+562.847+751.092+563.185+751.071+563.518C750.405+574.024+747.542+584.274+742.666+593.604C740.682+597.413+738.391+601.054+735.816+604.491C732.228+609.287+727.899+614.239+726.389+619.627C726.224+620.185+726.099+620.754+726.015+621.33L747.956+643.879C748.035+643.908+748.109+643.942+748.189+643.972L749.018+644.907C749.166+644.736+749.316+644.556+749.464+644.385C749.551+644.286+749.632+644.182+749.719+644.084C749.775+644.016+749.831+643.948+749.886+643.89C749.905+643.868+749.923+643.845+749.936+643.827C749.991+643.769+750.035+643.71+750.085+643.656C750.924+642.651+751.757+641.64+752.584+640.621C752.59+640.617+752.59+640.617+752.591+640.607C758.865+632.833+764.447+624.535+768.402+615.764C768.521+615.501+768.646+615.233+768.755+614.958C770.502+611.027+771.885+606.943+772.887+602.759C773.42+600.487+773.822+598.186+774.091+595.868C774.767+589.884+774.357+583.826+772.878+577.988C769.923+566.291+762.696+555.545+751.284+549.107C750.992+548.942+750.704+548.783+750.406+548.622Z" opacity="1" fill="#f2f2f2"/>
<path d="M750.126+548.915C758.401+561.889+761.959+577.243+759.814+591.98C759.426+595.224+758.465+598.373+756.975+601.281C755.317+604.203+752.899+606.621+749.978+608.28C747.209+609.96+744.153+611.399+741.902+613.634C739.657+615.841+738.604+618.99+739.07+622.104C739.56+625.869+741.577+629.257+743.683+632.51C746.021+636.122+748.516+639.842+748.805+644.077C748.84+644.59+749.755+644.513+749.719+644C749.216+636.632+742.515+631.183+740.456+624.23C739.495+620.986+739.654+617.47+742.066+614.72C744.175+612.315+747.325+610.829+750.146+609.15C753.029+607.558+755.479+605.284+757.281+602.527C758.934+599.704+760.034+596.591+760.522+593.355C761.72+586.187+761.611+578.861+760.2+571.732C758.595+563.449+755.429+555.547+750.871+548.448C750.585+548+749.842+548.47+750.126+548.915Z" opacity="1" fill="#ffffff"/>
<path d="M760.802+587.222C766.812+587.167+771.939+583.25+772.798+578.091C772.883+577.583+771.978+577.445+771.893+577.953C771.088+582.787+766.332+586.376+760.714+586.427C760.123+586.432+760.215+587.227+760.802+587.222Z" opacity="1" fill="#ffffff"/>
<path d="M751.511+607.59C747.31+604.243+744.666+599.32+744.195+593.97C744.158+593.457+743.243+593.534+743.28+594.046C743.783+599.614+746.547+604.731+750.926+608.205C751.356+608.559+751.938+607.941+751.511+607.59Z" opacity="1" fill="#ffffff"/>
<path d="M757.618+564.139C755.369+564.595+753.034+564.025+751.248+562.585C750.824+562.227+750.242+562.845+750.664+563.201C752.643+564.784+755.218+565.417+757.706+564.933C757.95+564.885+758.142+564.732+758.119+564.498C758.073+564.264+757.853+564.107+757.618+564.139Z" opacity="1" fill="#ffffff"/>
<path d="M699.565+643.284C672.257+661.955+645.106+666.694+623.113+656.627C594.891+643.709+577.795+608.142+576.209+559.045L577.881+559.202C579.444+607.615+596.136+642.611+623.676+655.216C645.079+665.013+671.644+660.305+698.477+641.958L699.565+643.284Z" opacity="1" fill="#f2f2f2"/>
<path d="M868.323+327.14C865.634+356.769+857.973+388.012+845.958+418.158C831.099+455.436+810.799+488.271+787.251+513.113L785.944+511.973C809.378+487.251+829.586+454.561+844.382+417.437C857.755+383.888+865.708+348.976+867.394+316.489L869.064+316.769C868.887+320.2+868.64+323.657+868.323+327.14Z" opacity="1" fill="#f2f2f2"/>
<path d="M795.778+285.029L794.155+285.207C786.917+256.764+772.887+237.059+753.581+228.222C729.039+216.988+698.691+224.532+668.128+249.463C637.41+274.522+610.216+314.104+591.557+360.92L589.982+360.199C608.723+313.179+636.056+273.405+666.947+248.207C697.992+222.882+728.959+215.283+754.143+226.811C774.003+235.901+788.4+256.033+795.778+285.029Z" opacity="1" fill="#f2f2f2"/>
<path d="M885.857+532.659C852.782+585.279+812.655+622.876+772.867+638.524L772.062+637.048C811.575+621.509+851.467+584.104+884.391+531.724L885.857+532.659Z" opacity="1" fill="#f2f2f2"/>
<path d="M936.887+414.767C936.342+420.773+935.644+426.851+934.791+433.004L933.133+432.601C939.498+386.691+937.24+344.596+926.6+310.86L928.199+310.592C937.479+340.021+940.429+375.742+936.887+414.767Z" opacity="1" fill="#f2f2f2"/>
<path d="M591.433+369.155C587.187+378.098+583.149+387.364+579.431+396.693C558.032+450.382+547.188+505.212+548.074+555.26L546.402+555.081C545.515+504.848+556.39+449.828+577.856+395.972C581.585+386.616+585.634+377.325+589.892+368.356L591.433+369.155Z" opacity="1" fill="#f2f2f2"/>
<path d="M698.763+680.174C671.454+698.846+644.303+703.584+622.311+693.518C594.088+680.599+576.992+645.032+575.406+595.936L577.078+596.092C578.641+644.505+595.333+679.501+622.873+692.107C644.276+701.903+670.841+697.195+697.674+678.849L698.763+680.174Z" opacity="1" fill="#f2f2f2"/>
<path d="M867.52+364.03C864.831+393.66+857.17+424.903+845.155+455.048C830.296+492.327+809.996+525.162+786.448+550.003L785.141+548.863C808.575+524.142+828.783+491.452+843.58+454.327C856.952+420.778+864.906+385.866+866.591+353.379L868.261+353.659C868.084+357.09+867.837+360.547+867.52+364.03Z" opacity="1" fill="#f2f2f2"/>
<path d="M864.575+323.967L862.951+324.145C855.713+295.701+841.684+275.996+822.378+267.159C797.835+255.925+767.488+263.469+736.925+288.4C706.207+313.459+679.013+353.041+660.354+399.857L658.778+399.136C677.52+352.116+704.853+312.343+735.743+287.145C766.788+261.819+797.756+254.22+822.94+265.748C842.8+274.838+857.197+294.97+864.575+323.967Z" opacity="1" fill="#f2f2f2"/>
<path d="M883.69+582.514C850.615+635.134+810.488+672.731+770.7+688.379L769.895+686.903C809.407+671.363+849.299+633.959+882.223+581.579L883.69+582.514Z" opacity="1" fill="#f2f2f2"/>
<path d="M936.084+451.658C935.539+457.663+934.841+463.742+933.989+469.894L932.33+469.492C938.696+423.581+936.438+381.486+925.797+347.75L927.396+347.482C936.676+376.912+939.626+412.632+936.084+451.658Z" opacity="1" fill="#f2f2f2"/>
<path d="M590.63+406.045C586.385+414.989+582.347+424.254+578.628+433.583C557.229+487.272+546.385+542.102+547.271+592.15L545.599+591.971C544.712+541.738+555.587+486.719+577.053+432.863C580.782+423.507+584.832+414.215+589.089+405.247L590.63+406.045Z" opacity="1" fill="#f2f2f2"/>
<path d="M901.438+381.336C898.239+379.208+897.145+375.23+898.994+372.451C900.843+369.672+904.934+369.145+908.133+371.273C911.332+373.401+912.426+377.378+910.577+380.157C908.728+382.936+904.637+383.464+901.438+381.336Z" opacity="1" fill="#fd6584"/>
<path d="M698.078+415.582C701.949+409.649+708.27+404.987+715.309+404.593C722.349+404.2+730.808+410.194+734.283+416.362C740.638+427.645+737.88+438.494+729.127+446.342C727.938+445.938+723.788+444.72+722.58+444.331L721.813+442.947L720.868+443.789C710.051+444.868+699.602+443.666+691.46+435.606C692.472+428.592+694.207+421.514+698.078+415.582Z" opacity="1" fill="#2f2e41"/>
<path d="M727.081+494.776L725.803+506.635L726.555+522.188L692.107+518.095L688.87+494.776L692.994+494.816L727.081+494.776Z" opacity="1" fill="#ffb6b6"/>
<path d="M698.633+429.218C698.633+421.318+705.037+414.914+712.937+414.914C720.837+414.914+727.242+421.318+727.242+429.218C727.242+437.118+720.837+443.523+712.937+443.523C705.037+443.523+698.633+437.118+698.633+429.218Z" opacity="1" fill="#ffb7b7"/>
<path d="M697.087+455.796L705.273+450.885L721.644+449.248L736.114+456.616L735.969+479.125L726.789+502.471L688.317+497.56L686.855+489.325C686.855+489.325+676.214+475.033+687.674+466.847L697.087+455.796Z" opacity="1" fill="#19a1fb"/>
<path d="M707.589+407.494C713.902+405.724+720.678+407.534+725.268+412.215C729.858+416.897+731.534+423.707+729.64+429.984C720.928+430.679+712.317+429.866+705.528+423.702L704.924+418.414L702.447+422.839C699.949+422.136+697.447+421.429+694.941+420.718C696.501+414.372+701.319+409.335+707.589+407.494Z" opacity="1" fill="#2f2e41"/>
<path d="M647.958+388.958C647.172+390.632+647.169+392.568+647.948+394.245C648.728+395.922+650.21+397.168+651.996+397.647L678.647+447.933L689.405+439.63L659.825+392.811C660.444+389.689+658.63+386.597+655.603+385.614C652.575+384.631+649.291+386.067+647.958+388.958Z" opacity="1" fill="#ffb6b6"/>
<path d="M691.675+464.925C691.675+464.925+689.206+467.115+685.693+461.067C682.882+456.225+668.859+434.544+666.874+427.028C664.633+427.092+662.635+425.629+662.017+423.475L677.079+417.629C680.353+419.266+679.445+421.535+678.614+422.709L684.224+431.123L702.883+452.063L693.488+463.373L691.675+464.925Z" opacity="1" fill="#19a1fb"/>
<path d="M946.288+724.927L502.561+724.927C502.113+724.927+501.749+724.563+501.749+724.114C501.749+723.666+502.113+723.302+502.561+723.302L946.288+723.302C946.737+723.302+947.101+723.666+947.101+724.114C947.101+724.563+946.737+724.927+946.288+724.927Z" opacity="1" fill="#cccccc"/>
<path d="M840.057+271.495C832.048+263.601+821.353+259.245+810.628+256.457C798.488+253.302+785.934+251.444+773.531+249.661C760.606+247.802+747.629+246.369+734.601+245.36C721.59+244.357+708.556+243.783+695.499+243.638C683.863+243.507+672.15+243.503+660.572+244.794C649.666+246.01+638.787+248.45+628.955+253.459C620.203+257.822+612.85+264.552+607.732+272.884C603.027+280.64+600.229+289.938+601.202+299.055C601.658+303.544+603.056+307.887+605.304+311.8C607.939+316.123+611.298+319.962+615.233+323.149C623.357+330.009+633.069+335.023+640.058+343.176C641.903+345.312+643.515+347.639+644.867+350.117C645.882+351.997+647.023+353.614+648.91+354.71C652.356+356.677+656.645+356.378+659.785+353.953C661.962+352.244+663.525+349.61+665.21+347.442L671.084+339.882C671.509+339.205+672.001+338.572+672.553+337.993C672.948+337.665+672.295+337.954+672.425+337.872C672.496+337.827+672.621+337.852+672.699+337.82C673.09+337.708+673.491+337.633+673.897+337.598C678.186+336.809+682.485+336.071+686.792+335.385C702.698+332.818+718.706+330.701+734.782+329.56C743.067+328.899+751.384+328.7+759.692+328.966C770.434+329.406+781.029+331.539+791.732+332.459C803.256+333.45+815.36+333.313+826.219+328.87C834.91+325.313+842.98+319.33+847.686+311.065C849.918+307.157+851.241+302.795+851.556+298.304C852.13+288.119+847.178+278.514+840.057+271.495Z" opacity="1" fill="#e6e6e6"/>
<path d="M689.094+251.986C687.044+251.986+684.996+251.997+682.95+252.018C663.295+252.227+642.983+253.816+627.569+263.947C613.887+272.939+604.299+292.969+612.413+307.334C616.14+313.93+622.891+318.732+630.039+323.814C632.84+325.807+635.738+327.867+638.515+330.086C644.58+334.933+650.292+341.439+653.578+348.753L668.011+330.18L670.737+329.658C673.361+329.156+735.364+317.398+768.385+321.215C771.422+321.567+774.491+321.971+777.46+322.361C790.875+324.126+803.545+325.792+815.709+323.332C828.408+320.762+842.352+310.955+843.182+297.84C843.75+288.861+837.909+279.011+828.301+272.746C818.586+266.411+806.47+263.796+794.891+261.66C759.993+255.229+724.58+251.991+689.094+251.986Z" opacity="1" fill="#ffffff"/>
<path d="M801.099+280.564L661.721+280.564C660.046+280.564+658.689+279.206+658.689+277.532C658.689+275.857+660.046+274.499+661.721+274.499L801.099+274.499C802.774+274.499+804.132+275.857+804.132+277.532C804.132+279.206+802.774+280.564+801.099+280.564Z" opacity="1" fill="#19a1fb"/>
<path d="M801.099+299.178L661.721+299.178C660.046+299.178+658.689+297.821+658.689+296.146C658.689+294.471+660.046+293.113+661.721+293.113L801.099+293.113C802.774+293.113+804.132+294.471+804.132+296.146C804.132+297.821+802.774+299.178+801.099+299.178Z" opacity="1" fill="#19a1fb"/>
<path d="M677.964+317.792L661.721+317.792C660.046+317.792+658.689+316.434+658.689+314.76C658.689+313.085+660.046+311.727+661.721+311.727L677.964+311.727C679.639+311.727+680.996+313.085+680.996+314.76C680.996+316.434+679.639+317.792+677.964+317.792Z" opacity="1" fill="#19a1fb"/>
<path d="M639.892+377.643C639.892+370.524+645.662+364.753+652.781+364.753C659.9+364.753+665.67+370.524+665.67+377.643C665.67+384.761+659.9+390.532+652.781+390.532C645.662+390.532+639.892+384.761+639.892+377.643Z" opacity="1" fill="#e6e6e6"/>
<path d="M606.14+537.322C602.941+535.193+601.847+531.216+603.696+528.437C605.544+525.658+609.636+525.13+612.835+527.258C616.033+529.387+617.128+533.364+615.279+536.143C613.43+538.922+609.338+539.45+606.14+537.322Z" opacity="1" fill="#f2f2f2"/>
<path d="M882.695+536.444C879.496+534.316+878.402+530.339+880.251+527.56C882.1+524.781+886.191+524.253+889.39+526.381C892.589+528.509+893.683+532.487+891.834+535.266C889.985+538.045+885.894+538.572+882.695+536.444Z" opacity="1" fill="#e6e6e6"/>
<path d="M778.296+436.139C775.097+434.011+774.003+430.033+775.852+427.255C777.7+424.476+781.792+423.948+784.991+426.076C788.189+428.204+789.284+432.182+787.435+434.961C785.586+437.74+781.494+438.267+778.296+436.139Z" opacity="1" fill="#e6e6e6"/>
<path d="M744.949+710.107L737.418+710.107L733.834+681.056L744.949+681.056L744.949+710.107Z" opacity="1" fill="#ffb6b6"/>
<path d="M748.925+723.156L743.523+723.156L742.559+718.057L740.09+723.156L725.765+723.156C724.356+723.156+723.11+722.239+722.691+720.894C722.271+719.548+722.775+718.087+723.935+717.286L735.375+709.385L735.375+704.23L747.407+704.948L748.925+723.156Z" opacity="1" fill="#2f2e41"/>
<path d="M702.644+710.107L695.112+710.107L691.528+681.056L702.644+681.056L702.644+710.107Z" opacity="1" fill="#ffb6b6"/>
<path d="M706.619+723.156L701.218+723.156L700.254+718.057L697.785+723.156L683.459+723.156C682.05+723.156+680.804+722.239+680.385+720.894C679.966+719.548+680.47+718.087+681.63+717.286L693.069+709.385L693.069+704.23L705.102+704.948L706.619+723.156Z" opacity="1" fill="#2f2e41"/>
<path d="M748.199+685.055L748.117+685.055L746.669+637.821C748.572+634.148+748.512+629.767+746.507+626.149L746.299+625.774L746.837+623.281C747.527+620.079+747.211+616.742+745.93+613.726L744.578+569.666C749.406+538.379+726.399+517.975+726.399+517.975L691.935+517.975L684.536+543.397C679.645+591.052+680.532+637.491+688.294+682.482L688.083+682.589C687.321+682.852+686.994+683.908+687.352+684.947C687.711+685.986+688.62+686.615+689.381+686.352L707.583+685.719C708.344+685.456+708.671+684.401+708.313+683.362C707.954+682.323+707.046+681.693+706.284+681.956L705.046+682.582L707.685+637.003L707.392+628.678L707.996+619.233L710.786+576.749L721.346+628.992L732.132+685.581C731.524+686.132+731.317+687.002+731.614+687.768C731.911+688.534+732.649+689.038+733.471+689.036L748.199+689.036C749.298+689.036+750.189+688.145+750.189+687.045C750.189+685.946+749.298+685.055+748.199+685.055Z" opacity="1" fill="#2f2e41"/>
<path d="M732.126+552.983C733.701+552.014+734.765+550.396+735.032+548.566C735.3+546.737+734.743+544.882+733.512+543.503L738.79+486.836L725.242+487.882L724.314+543.255C722.084+545.527+721.906+549.107+723.899+551.589C725.892+554.071+729.427+554.67+732.126+552.983Z" opacity="1" fill="#ffb6b6"/>
<path d="M735.612+456.842C735.612+456.842+738.878+456.364+738.5+463.348C738.197+468.939+739.637+503.399+737.177+510.773C739.085+511.949+739.955+514.267+739.291+516.408L723.489+513.04C721.648+509.876+722.029+506.627+723.367+506.1L723.288+495.988L719.796+462.655L733.245+457.146L735.612+456.842Z" opacity="1" fill="#19a1fb"/>
<g opacity="1">
<path d="M353.637+124.138L353.637+177.338L341.325+177.338L341.325+155.526L317.157+155.526L317.157+177.338L304.845+177.338L304.845+124.138L317.157+124.138L317.157+145.114L341.325+145.114L341.325+124.138L353.637+124.138Z" opacity="1" fill="#19a1fb"/>
<path d="M405.469+157.046C405.469+157.198+405.393+158.262+405.241+160.238L374.309+160.238C374.866+162.771+376.184+164.772+378.261+166.242C380.338+167.711+382.922+168.446+386.013+168.446C388.141+168.446+390.028+168.129+391.675+167.496C393.322+166.862+394.854+165.862+396.273+164.494L402.581+171.334C398.73+175.742+393.106+177.946+385.709+177.946C381.098+177.946+377.02+177.046+373.473+175.248C369.926+173.449+367.19+170.954+365.265+167.762C363.34+164.57+362.377+160.947+362.377+156.894C362.377+152.891+363.327+149.281+365.227+146.064C367.127+142.846+369.736+140.338+373.055+138.54C376.374+136.741+380.085+135.842+384.189+135.842C388.192+135.842+391.814+136.703+395.057+138.426C398.3+140.148+400.846+142.618+402.695+145.836C404.544+149.053+405.469+152.79+405.469+157.046ZM384.265+144.81C381.58+144.81+379.325+145.57+377.501+147.09C375.677+148.61+374.562+150.687+374.157+153.322L394.297+153.322C393.892+150.738+392.777+148.673+390.953+147.128C389.129+145.582+386.9+144.81+384.265+144.81Z" opacity="1" fill="#19a1fb"/>
<path d="M413.373+120.946L425.229+120.946L425.229+177.338L413.373+177.338L413.373+120.946Z" opacity="1" fill="#19a1fb"/>
<path d="M436.249+120.946L448.105+120.946L448.105+177.338L436.249+177.338L436.249+120.946Z" opacity="1" fill="#19a1fb"/>
<path d="M478.581+177.946C474.274+177.946+470.411+177.046+466.991+175.248C463.571+173.449+460.898+170.954+458.973+167.762C457.048+164.57+456.085+160.947+456.085+156.894C456.085+152.84+457.048+149.218+458.973+146.026C460.898+142.834+463.571+140.338+466.991+138.54C470.411+136.741+474.274+135.842+478.581+135.842C482.888+135.842+486.738+136.741+490.133+138.54C493.528+140.338+496.188+142.834+498.113+146.026C500.038+149.218+501.001+152.84+501.001+156.894C501.001+160.947+500.038+164.57+498.113+167.762C496.188+170.954+493.528+173.449+490.133+175.248C486.738+177.046+482.888+177.946+478.581+177.946ZM478.581+168.218C481.621+168.218+484.116+167.192+486.067+165.14C488.018+163.088+488.993+160.339+488.993+156.894C488.993+153.448+488.018+150.7+486.067+148.648C484.116+146.596+481.621+145.57+478.581+145.57C475.541+145.57+473.033+146.596+471.057+148.648C469.081+150.7+468.093+153.448+468.093+156.894C468.093+160.339+469.081+163.088+471.057+165.14C473.033+167.192+475.541+168.218+478.581+168.218Z" opacity="1" fill="#19a1fb"/>
<path d="M542.269+134.17L525.245+134.17L525.245+124.138L571.605+124.138L571.605+134.17L554.581+134.17L554.581+177.338L542.269+177.338L542.269+134.17Z" opacity="1" fill="#19a1fb"/>
<path d="M602.233+135.842C607.3+135.842+611.391+137.362+614.507+140.402C617.623+143.442+619.181+147.951+619.181+153.93L619.181+177.338L607.325+177.338L607.325+155.754C607.325+152.511+606.616+150.092+605.197+148.496C603.778+146.9+601.726+146.102+599.041+146.102C596.052+146.102+593.67+147.026+591.897+148.876C590.124+150.725+589.237+153.474+589.237+157.122L589.237+177.338L577.381+177.338L577.381+120.946L589.237+120.946L589.237+140.706C590.808+139.135+592.708+137.932+594.937+137.096C597.166+136.26+599.598+135.842+602.233+135.842Z" opacity="1" fill="#19a1fb"/>
<path d="M669.949+157.046C669.949+157.198+669.873+158.262+669.721+160.238L638.789+160.238C639.346+162.771+640.664+164.772+642.741+166.242C644.818+167.711+647.402+168.446+650.493+168.446C652.621+168.446+654.508+168.129+656.155+167.496C657.802+166.862+659.334+165.862+660.753+164.494L667.061+171.334C663.21+175.742+657.586+177.946+650.189+177.946C645.578+177.946+641.5+177.046+637.953+175.248C634.406+173.449+631.67+170.954+629.745+167.762C627.82+164.57+626.857+160.947+626.857+156.894C626.857+152.891+627.807+149.281+629.707+146.064C631.607+142.846+634.216+140.338+637.535+138.54C640.854+136.741+644.565+135.842+648.669+135.842C652.672+135.842+656.294+136.703+659.537+138.426C662.78+140.148+665.326+142.618+667.175+145.836C669.024+149.053+669.949+152.79+669.949+157.046ZM648.745+144.81C646.06+144.81+643.805+145.57+641.981+147.09C640.157+148.61+639.042+150.687+638.637+153.322L658.777+153.322C658.372+150.738+657.257+148.673+655.433+147.128C653.609+145.582+651.38+144.81+648.745+144.81Z" opacity="1" fill="#19a1fb"/>
<path d="M689.177+141.846C690.596+139.87+692.508+138.375+694.915+137.362C697.322+136.348+700.096+135.842+703.237+135.842L703.237+146.786C701.92+146.684+701.033+146.634+700.577+146.634C697.182+146.634+694.522+147.584+692.597+149.484C690.672+151.384+689.709+154.234+689.709+158.034L689.709+177.338L677.853+177.338L677.853+136.45L689.177+136.45L689.177+141.846Z" opacity="1" fill="#19a1fb"/>
<path d="M750.661+157.046C750.661+157.198+750.585+158.262+750.433+160.238L719.501+160.238C720.058+162.771+721.376+164.772+723.453+166.242C725.53+167.711+728.114+168.446+731.205+168.446C733.333+168.446+735.22+168.129+736.867+167.496C738.514+166.862+740.046+165.862+741.465+164.494L747.773+171.334C743.922+175.742+738.298+177.946+730.901+177.946C726.29+177.946+722.212+177.046+718.665+175.248C715.118+173.449+712.382+170.954+710.457+167.762C708.532+164.57+707.569+160.947+707.569+156.894C707.569+152.891+708.519+149.281+710.419+146.064C712.319+142.846+714.928+140.338+718.247+138.54C721.566+136.741+725.277+135.842+729.381+135.842C733.384+135.842+737.006+136.703+740.249+138.426C743.492+140.148+746.038+142.618+747.887+145.836C749.736+149.053+750.661+152.79+750.661+157.046ZM729.457+144.81C726.772+144.81+724.517+145.57+722.693+147.09C720.869+148.61+719.754+150.687+719.349+153.322L739.489+153.322C739.084+150.738+737.969+148.673+736.145+147.128C734.321+145.582+732.092+144.81+729.457+144.81Z" opacity="1" fill="#19a1fb"/>
<path d="M757.045+124.138L771.181+124.138L768.825+158.87L759.401+158.87L757.045+124.138ZM764.113+177.946C762.036+177.946+760.3+177.274+758.907+175.932C757.514+174.589+756.817+172.955+756.817+171.03C756.817+169.104+757.501+167.496+758.869+166.204C760.237+164.912+761.985+164.266+764.113+164.266C766.241+164.266+767.989+164.912+769.357+166.204C770.725+167.496+771.409+169.104+771.409+171.03C771.409+172.955+770.712+174.589+769.319+175.932C767.926+177.274+766.19+177.946+764.113+177.946Z" opacity="1" fill="#19a1fb"/>
</g>
</g>
</svg>
