<svg width="216" height="216" viewBox="0 0 217 216" fill="none" xmlns="http://www.w3.org/2000/svg">

<!-- South -->
<path d="M99.6131 175.2H107.245C109.069 175.2 110.677 175.552 112.069 176.256C113.477 176.944 114.565 177.92 115.333 179.184C116.117 180.448 116.509 181.92 116.509 183.6C116.509 185.28 116.117 186.752 115.333 188.016C114.565 189.28 113.477 190.264 112.069 190.968C110.677 191.656 109.069 192 107.245 192H99.6131V175.2ZM107.053 188.808C108.733 188.808 110.069 188.344 111.061 187.416C112.069 186.472 112.573 185.2 112.573 183.6C112.573 182 112.069 180.736 111.061 179.808C110.069 178.864 108.733 178.392 107.053 178.392H103.501V188.808H107.053Z" fill="white"/>

</svg>
