<svg width="216" height="216" viewBox="0 0 217 216" fill="none" xmlns="http://www.w3.org/2000/svg">

<!-- West -->
<path d="M24.6131 100.2H32.2451C34.0691 100.2 35.6771 100.552 37.0691 101.256C38.4771 101.944 39.5651 102.92 40.3331 104.184C41.1171 105.448 41.5091 106.92 41.5091 108.6C41.5091 110.28 41.1171 111.752 40.3331 113.016C39.5651 114.28 38.4771 115.264 37.0691 115.968C35.6771 116.656 34.0691 117 32.2451 117H24.6131V100.2ZM32.0531 113.808C33.7331 113.808 35.0691 113.344 36.0611 112.416C37.0691 111.472 37.5731 110.2 37.5731 108.6C37.5731 107 37.0691 105.736 36.0611 104.808C35.0691 103.864 33.7331 103.392 32.0531 103.392H28.5011V113.808H32.0531Z" fill="white"/>

</svg>
