<svg width="216" height="216" viewBox="0 0 217 216" fill="none" xmlns="http://www.w3.org/2000/svg">

<!-- West -->
<path d="M24.6131 100.2H32.2451C34.0691 100.2 35.6771 100.552 37.0691 101.256C38.4771 101.944 39.5651 102.92 40.3331 104.184C41.1171 105.448 41.5091 106.92 41.5091 108.6C41.5091 110.28 41.1171 111.752 40.3331 113.016C39.5651 114.28 38.4771 115.264 37.0691 115.968C35.6771 116.656 34.0691 117 32.2451 117H24.6131V100.2ZM32.0531 113.808C33.7331 113.808 35.0691 113.344 36.0611 112.416C37.0691 111.472 37.5731 110.2 37.5731 108.6C37.5731 107 37.0691 105.736 36.0611 104.808C35.0691 103.864 33.7331 103.392 32.0531 103.392H28.5011V113.808H32.0531Z" fill="white"/>

<!-- South -->
<path d="M99.6131 175.2H107.245C109.069 175.2 110.677 175.552 112.069 176.256C113.477 176.944 114.565 177.92 115.333 179.184C116.117 180.448 116.509 181.92 116.509 183.6C116.509 185.28 116.117 186.752 115.333 188.016C114.565 189.28 113.477 190.264 112.069 190.968C110.677 191.656 109.069 192 107.245 192H99.6131V175.2ZM107.053 188.808C108.733 188.808 110.069 188.344 111.061 187.416C112.069 186.472 112.573 185.2 112.573 183.6C112.573 182 112.069 180.736 111.061 179.808C110.069 178.864 108.733 178.392 107.053 178.392H103.501V188.808H107.053Z" fill="white"/>

<!-- East -->
<path d="M174.613 100.2H182.245C184.069 100.2 185.677 100.552 187.069 101.256C188.477 101.944 189.565 102.92 190.333 104.184C191.117 105.448 191.509 106.92 191.509 108.6C191.509 110.28 191.117 111.752 190.333 113.016C189.565 114.28 188.477 115.264 187.069 115.968C185.677 116.656 184.069 117 182.245 117H174.613V100.2ZM182.053 113.808C183.733 113.808 185.069 113.344 186.061 112.416C187.069 111.472 187.573 110.2 187.573 108.6C187.573 107 187.069 105.736 186.061 104.808C185.069 103.864 183.733 103.392 182.053 103.392H178.501V113.808H182.053Z" fill="white"/>

<!-- North -->
<path d="M99.6131 24.2H107.245C109.069 24.2 110.677 24.552 112.069 25.256C113.477 25.944 114.565 26.92 115.333 28.184C116.117 29.448 116.509 30.92 116.509 32.6C116.509 34.28 116.117 35.752 115.333 37.016C114.565 38.28 113.477 39.264 112.069 39.968C110.677 40.656 109.069 41 107.245 41H99.6131V24.2ZM107.053 37.808C108.733 37.808 110.069 37.344 111.061 36.416C112.069 35.472 112.573 34.2 112.573 32.6C112.573 31 112.069 29.736 111.061 28.808C110.069 27.864 108.733 27.392 107.053 27.392H103.501V37.808H107.053Z" fill="white"/>
</svg>
