<svg width="216" height="216" viewBox="0 0 217 216" fill="none" xmlns="http://www.w3.org/2000/svg">

<!-- East -->
<path d="M174.613 100.2H182.245C184.069 100.2 185.677 100.552 187.069 101.256C188.477 101.944 189.565 102.92 190.333 104.184C191.117 105.448 191.509 106.92 191.509 108.6C191.509 110.28 191.117 111.752 190.333 113.016C189.565 114.28 188.477 115.264 187.069 115.968C185.677 116.656 184.069 117 182.245 117H174.613V100.2ZM182.053 113.808C183.733 113.808 185.069 113.344 186.061 112.416C187.069 111.472 187.573 110.2 187.573 108.6C187.573 107 187.069 105.736 186.061 104.808C185.069 103.864 183.733 103.392 182.053 103.392H178.501V113.808H182.053Z" fill="white"/>

</svg>
