<svg width="216" height="216" viewBox="0 0 217 216" fill="none" xmlns="http://www.w3.org/2000/svg">

<!-- North -->
<path d="M99.6131 24.2H107.245C109.069 24.2 110.677 24.552 112.069 25.256C113.477 25.944 114.565 26.92 115.333 28.184C116.117 29.448 116.509 30.92 116.509 32.6C116.509 34.28 116.117 35.752 115.333 37.016C114.565 38.28 113.477 39.264 112.069 39.968C110.677 40.656 109.069 41 107.245 41H99.6131V24.2ZM107.053 37.808C108.733 37.808 110.069 37.344 111.061 36.416C112.069 35.472 112.573 34.2 112.573 32.6C112.573 31 112.069 29.736 111.061 28.808C110.069 27.864 108.733 27.392 107.053 27.392H103.501V37.808H107.053Z" fill="white"/>

</svg>
