<svg width="100" height="100" viewBox="0 0 100 100" fill="none" xmlns="http://www.w3.org/2000/svg">
<path d="M88.0567 40.879C83.5472 37.3417 78.5365 36.9375 73.0248 39.6663L64.7573 44.9722C63.5547 45.4776 62.4024 44.7701 61.3001 42.8499C60.4984 41.4349 62.3022 38.5545 66.7115 34.2087C71.3213 29.4586 72.4236 23.7483 70.0185 17.078C68.1144 11.2161 64.2062 7.42615 58.2937 5.70803L50.0262 4.04043H48.9738C46.4685 3.83829 43.7629 4.39417 40.8568 5.70803C34.6436 7.42615 30.6851 11.2161 28.9815 17.078C26.5764 23.7483 27.6787 29.4586 32.2885 34.2087C36.5976 38.5545 38.3513 41.4349 37.5496 42.8499C36.5475 44.669 35.4953 45.3765 34.393 44.9722C25.9751 36.6848 18.0582 35.3204 10.6425 40.879C6.03273 44.6185 3.52742 50.0255 3.12657 57.1002C2.72572 61.9514 3.27703 65.8424 4.78022 68.7733C9.08936 77.465 15.2023 81.9625 23.119 82.2657C31.9378 82.5689 37.3994 78.1219 39.5038 68.9249C40.9068 67.3078 42.1595 67.8132 43.2618 70.4409C44.0635 73.4729 43.813 76.3533 42.5102 79.0821L33.9419 95H64.7573C59.6465 85.803 56.8906 80.497 56.4898 79.0821C55.187 76.1512 54.9867 73.2708 55.8886 70.4409C56.2895 69.3292 56.9408 68.7733 57.8427 68.7733L59.4961 68.9249L63.1038 75.8985C66.2104 80.2443 70.4695 82.3667 75.8809 82.2657C84.1986 81.9625 90.3117 77.465 94.2199 68.7733C95.7231 65.9435 96.2743 62.0524 95.8734 57.1002C95.4726 50.0255 92.8669 44.6185 88.0567 40.879Z" fill="#1C1C1C"/>
</svg>
