<svg width="100" height="100" viewBox="0 0 100 100" fill="none" xmlns="http://www.w3.org/2000/svg">
<path d="M80.569 56.7572C84.2931 52.881 87.6034 48.3761 90.5 43.2428C93.5 37.7952 95 32.9762 95 28.7857C95 23.1286 93.0345 18.0477 89.1035 13.5429C84.7586 8.51436 79.1207 6 72.1896 6C65.4655 6 59.9828 8.46183 55.7414 13.3856C52.1207 17.3666 50.2069 22.0285 50 27.3714C49.8966 22.0285 48.0345 17.3666 44.4138 13.3856C40.1725 8.46183 34.638 6 27.8104 6C20.8793 6 15.2414 8.51436 10.8965 13.5429C6.9655 18.0477 5 23.1286 5 28.7857C5 32.9762 6.50004 37.7952 9.50004 43.2428C12.3966 48.3761 15.8103 52.881 19.7414 56.7572C35.6724 72.9953 45.7586 85.4095 50 94C54.4483 85.4095 64.638 72.9953 80.569 56.7572Z" fill="#ED1C24"/>
</svg>
