<svg width="100" height="100" viewBox="0 0 100 100" fill="none" xmlns="http://www.w3.org/2000/svg">
<path d="M8.70951 65.88C12.7607 74.3733 20.1541 78.3167 30.8898 77.71C36.1563 77.3056 40.9671 75.9911 45.3222 73.7667L42.5876 84.08C40.7646 87.3156 37.8781 90.9556 33.9282 95H64.7679C60.9192 90.9556 58.0834 87.3156 56.2604 84.08L53.5259 73.7667L68.1101 77.71C78.7445 78.3167 86.138 74.3733 90.2905 65.88C93.5314 59.0045 92.1641 51.5222 86.1886 43.4333L66.8948 22.655L49.1202 4L32.409 22.655L12.8114 43.4333C6.83585 51.5222 5.46855 59.0045 8.70951 65.88Z" fill="#1C1C1C"/>
</svg>
